<?xml version="1.0" encoding="UTF-8"?>
<svg width="24px" height="24px" viewBox="0 0 24 24" version="1.1" xmlns="http://www.w3.org/2000/svg">
    <path d="M15.991477,3 C16.457477,3.53 16.935477,4.325 16.731477,5.245 C16.527477,6.165 15.991477,6.695 15.199477,7.225 C14.407477,7.755 13.275477,7.49 12.483477,7.225 C11.691477,6.96 10.899477,6.165 10.899477,5.245 C10.899477,4.325 11.435477,3.53 12.227477,3.265 C13.019477,3 14.151477,3 15.991477,3 Z M20.095477,17.68 C19.839477,18.335 19.583477,18.99 19.071477,19.645 C18.559477,20.3 18.047477,20.695 17.279477,20.955 C16.511477,21.215 15.743477,21.215 14.975477,20.955 C14.207477,20.695 13.695477,20.3 13.183477,19.645 C12.671477,18.99 12.415477,18.335 12.159477,17.68 C11.903477,17.025 11.647477,16.37 11.647477,15.715 C11.647477,15.06 11.903477,14.405 12.159477,13.75 C12.415477,13.095 12.927477,12.44 13.439477,12.045 C13.951477,11.65 14.719477,11.39 15.487477,11.39 C16.255477,11.39 17.023477,11.65 17.535477,12.045 C18.047477,12.44 18.559477,13.095 18.815477,13.75 C19.071477,14.405 19.327477,15.06 19.327477,15.715 C19.327477,16.37 19.327477,17.025 20.095477,17.68 Z M8.803477,21.215 L6.963477,21.215 L6.963477,8.015 L3.371477,8.015 L3.371477,6.175 L12.395477,6.175 L12.395477,8.015 L8.803477,8.015 L8.803477,21.215 Z" fill="#FFFFFF"/>
</svg>